<?xml version="1.0" encoding="UTF-8" standalone="no"?>
<svg
   xmlns:dc="http://purl.org/dc/elements/1.1/"
   xmlns:cc="http://creativecommons.org/ns#"
   xmlns:rdf="http://www.w3.org/1999/02/22-rdf-syntax-ns#"
   xmlns:svg="http://www.w3.org/2000/svg"
   xmlns="http://www.w3.org/2000/svg"
   xmlns:sodipodi="http://sodipodi.sourceforge.net/DTD/sodipodi-0.dtd"
   xmlns:inkscape="http://www.inkscape.org/namespaces/inkscape"
   version="1.1"
   id="svg833"
   xml:space="preserve"
   width="845.33289"
   height="845.33356"
   viewBox="0 0 845.33291 845.33356"
   sodipodi:docname="jsrings.svg"
   inkscape:version="1.0.1 (c497b03c, 2020-09-10)"><metadata
     id="metadata839"><rdf:RDF><cc:Work
         rdf:about=""><dc:format>image/svg+xml</dc:format><dc:type
           rdf:resource="http://purl.org/dc/dcmitype/StillImage" /><dc:title></dc:title></cc:Work></rdf:RDF></metadata><defs
     id="defs837"><clipPath
       clipPathUnits="userSpaceOnUse"
       id="clipPath849"><path
         d="M 0,768 H 1366 V 0 H 0 Z"
         id="path847" /></clipPath><clipPath
       clipPathUnits="userSpaceOnUse"
       id="clipPath893"><path
         d="m 777.353,576.101 h 48.874 v -97.748 h -48.874 z"
         id="path891" /></clipPath></defs><sodipodi:namedview
     pagecolor="#ffffff"
     bordercolor="#666666"
     borderopacity="1"
     objecttolerance="10"
     gridtolerance="10"
     guidetolerance="10"
     inkscape:pageopacity="0"
     inkscape:pageshadow="2"
     inkscape:window-width="1328"
     inkscape:window-height="679"
     id="namedview835"
     showgrid="false"
     fit-margin-top="0"
     fit-margin-left="0"
     fit-margin-right="0"
     fit-margin-bottom="0"
     inkscape:zoom="0.26113187"
     inkscape:cx="422.66677"
     inkscape:cy="422.66678"
     inkscape:window-x="0"
     inkscape:window-y="23"
     inkscape:window-maximized="0"
     inkscape:current-layer="g841" /><g
     id="g841"
     inkscape:groupmode="layer"
     inkscape:label="JS-element"
     transform="matrix(1.3333333,0,0,-1.3333333,-487.99985,934.66678)"><g
       id="g843"
       inkscape:export-filename="/Users/rakravur/Pictures/jumpstart2020/images/jsrings.png"
       inkscape:export-xdpi="116.29"
       inkscape:export-ydpi="116.29"><g
         id="g845"
         clip-path="url(#clipPath849)"><g
           id="g851"
           transform="translate(826.2266,67)"><path
             d="m 0,0 v 61.092 c -62.231,0 -112.681,50.449 -112.681,112.681 h -61.091 C -173.772,77.801 -95.972,0 0,0"
             style="fill:#079fff;fill-opacity:1;fill-rule:nonzero;stroke:none"
             id="path853" /></g><g
           id="g855"
           transform="translate(727.8164,384)"><path
             d="M 0,0 C 27.979,-19.261 61.874,-30.546 98.41,-30.546 V 30.546 C 61.874,30.546 27.979,19.261 0,0"
             style="fill:#b4b4b4;fill-opacity:1;fill-rule:nonzero;stroke:none"
             id="path857" /></g><g
           id="g859"
           transform="translate(652.4541,527.2271)"><path
             d="m 0,0 h 61.092 c 0,62.232 50.449,112.681 112.68,112.681 v 61.092 C 77.801,173.773 0,95.972 0,0"
             style="fill:#ffe63b;fill-opacity:1;fill-rule:nonzero;stroke:none"
             id="path861" /></g><g
           id="g863"
           transform="translate(713.5459,527.2271)"><path
             d="m 0,0 h -61.092 c 0,-36.536 11.285,-70.432 30.546,-98.411 C -11.285,-70.432 0,-36.536 0,0"
             style="fill:#ffe63b;fill-opacity:1;fill-rule:nonzero;stroke:none"
             id="path865" /></g><g
           id="g867"
           transform="translate(713.5459,240.7734)"><path
             d="m 0,0 h -61.092 c 0,-62.232 -50.449,-112.682 -112.681,-112.682 v -61.091 C -77.801,-173.773 0,-95.973 0,0"
             style="fill:#00e6c3;fill-opacity:1;fill-rule:nonzero;stroke:none"
             id="path869" /></g><g
           id="g871"
           transform="translate(539.7729,67)"><path
             d="m 0,0 v 61.092 c -62.232,0 -112.681,50.449 -112.681,112.681 h -61.092 C -173.773,77.801 -95.972,0 0,0"
             style="fill:#00e6c3;fill-opacity:1;fill-rule:nonzero;stroke:none"
             id="path873" /></g><g
           id="g875"
           transform="translate(826.2266,353.4541)"><path
             d="m 0,0 v 61.092 c -62.231,0 -112.681,50.449 -112.681,112.681 h -61.091 C -173.772,77.801 -95.972,0 0,0"
             style="fill:#ffe63b;fill-opacity:1;fill-rule:nonzero;stroke:none"
             id="path877" /></g><g
           id="g879"
           transform="translate(826.2266,414.5459)"><path
             d="m 0,0 c -95.972,0 -173.772,-77.801 -173.772,-173.772 h 61.091 c 0,62.231 50.45,112.68 112.681,112.68 62.232,0 112.682,-50.449 112.682,-112.68 0,-62.233 -50.45,-112.682 -112.682,-112.682 v -61.092 c 95.973,0 173.773,77.801 173.773,173.774 C 173.773,-77.801 95.973,0 0,0"
             style="fill:#fe414d;fill-opacity:1;fill-rule:nonzero;stroke:none"
             id="path881" /></g><g
           id="g883"
           transform="translate(652.4541,240.7734)"><path
             d="m 0,0 h 61.092 c 0,36.536 -11.285,70.432 -30.546,98.41 C 11.285,70.432 0,36.536 0,0"
             style="fill:#fe414d;fill-opacity:1;fill-rule:nonzero;stroke:none"
             id="path885" /></g><g
           id="g887"><g
             id="g889" /><g
             id="g901"><g
               clip-path="url(#clipPath893)"
               id="g899"><g
                 transform="translate(826.2266,478.3535)"
                 id="g897"><path
                   d="m 0,0 c -26.992,0 -48.873,21.881 -48.873,48.874 0,26.992 21.881,48.873 48.873,48.873"
                   style="fill:#fe414d;fill-opacity:1;fill-rule:nonzero;stroke:none"
                   id="path895" /></g></g></g></g></g></g></g></svg>
